<svg width="96" height="92" viewBox="0 0 96 92" fill="none" xmlns="http://www.w3.org/2000/svg">
<path d="M26.1475 66.9024C25.3492 67.0933 24.7505 67.0933 23.9523 67.0933C11.7787 67.0933 2 57.7397 2 46.0954H16.9675C16.3688 45.7137 15.9696 45.141 15.3709 44.7592C6.78959 36.551 6.78959 23.1887 15.3709 14.9805L25.9479 25.0976C25.9479 24.5249 25.7484 23.7614 25.7484 22.9978C25.7484 11.3536 35.5271 2 47.7007 2V16.3167C48.0998 15.744 48.6985 15.3623 49.0976 14.7896C57.8785 6.77223 71.8482 6.77223 80.4295 14.9805L69.8525 25.0976C70.4512 25.0976 71.2495 24.9067 72.0477 24.9067C84.2213 24.9067 94 34.2603 94 45.9046H79.0325C79.6312 46.2863 80.0304 46.859 80.6291 47.2408C89.2104 55.449 89.2104 68.8113 80.6291 77.0195L70.0521 66.9024C70.0521 67.4751 70.2516 68.2386 70.2516 69.0022C70.2516 80.6464 60.4729 90 48.2994 90V75.6833C47.9002 76.256 47.3015 76.6377 46.9024 77.2104C38.321 85.4187 24.3514 85.4187 15.7701 77.2104C15.3709 77.2104 26.1475 66.9024 26.1475 66.9024ZM65.8612 46.0954C65.8612 36.551 57.8785 28.9154 47.9002 28.9154C37.9219 28.9154 29.9393 36.551 29.9393 46.0954C29.9393 55.6399 37.9219 63.2755 47.9002 63.2755C57.8785 63.2755 65.8612 55.6399 65.8612 46.0954ZM51.8915 46.0954C51.8915 43.9957 50.0954 42.2777 47.9002 42.2777C45.705 42.2777 43.9089 43.9957 43.9089 46.0954C43.9089 48.1952 45.705 49.9132 47.9002 49.9132C50.0954 49.9132 51.8915 48.1952 51.8915 46.0954Z" stroke="#FF0707" stroke-width="4" stroke-miterlimit="10" stroke-linejoin="round"/>
</svg>
