<svg width="46" height="55" viewBox="0 0 46 55" fill="none" xmlns="http://www.w3.org/2000/svg">
<path d="M23 4.05932C18.0272 4.05932 13.2581 5.96341 9.74175 9.35271C6.22544 12.742 4.25 17.3389 4.25 22.1321V25.7466H8C8.99456 25.7466 9.94839 26.1275 10.6516 26.8053C11.3549 27.4832 11.75 28.4025 11.75 29.3612V40.2048C11.75 41.1635 11.3549 42.0829 10.6516 42.7607C9.94839 43.4386 8.99456 43.8194 8 43.8194H4.25C3.25544 43.8194 2.30161 43.4386 1.59835 42.7607C0.895088 42.0829 0.5 41.1635 0.5 40.2048V22.1321C0.5 19.2841 1.08198 16.4639 2.21271 13.8327C3.34344 11.2015 5.00078 8.81069 7.0901 6.79683C9.17942 4.78298 11.6598 3.1855 14.3896 2.09561C17.1194 1.00572 20.0453 0.444763 23 0.444763C25.9547 0.444763 28.8806 1.00572 31.6104 2.09561C34.3402 3.1855 36.8206 4.78298 38.9099 6.79683C40.9992 8.81069 42.6566 11.2015 43.7873 13.8327C44.918 16.4639 45.5 19.2841 45.5 22.1321V43.8194C45.5 46.216 44.5123 48.5144 42.7541 50.2091C40.996 51.9037 38.6114 52.8558 36.125 52.8558H28.1225C27.7934 53.4052 27.32 53.8615 26.7499 54.1788C26.1799 54.496 25.5332 54.663 24.875 54.6631H21.125C20.1304 54.6631 19.1766 54.2822 18.4734 53.6044C17.7701 52.9265 17.375 52.0071 17.375 51.0485C17.375 50.0899 17.7701 49.1705 18.4734 48.4926C19.1766 47.8148 20.1304 47.4339 21.125 47.4339H24.875C25.5332 47.434 26.1799 47.601 26.7499 47.9182C27.32 48.2355 27.7934 48.6918 28.1225 49.2412H36.125C37.6168 49.2412 39.0476 48.67 40.1025 47.6532C41.1574 46.6364 41.75 45.2574 41.75 43.8194H38C37.0054 43.8194 36.0516 43.4386 35.3484 42.7607C34.6451 42.0829 34.25 41.1635 34.25 40.2048V29.3612C34.25 28.4025 34.6451 27.4832 35.3484 26.8053C36.0516 26.1275 37.0054 25.7466 38 25.7466H41.75V22.1321C41.75 19.7587 41.265 17.4086 40.3227 15.2159C39.3805 13.0232 37.9994 11.0309 36.2583 9.35271C34.5172 7.67449 32.4502 6.34327 30.1753 5.43502C27.9005 4.52678 25.4623 4.05932 23 4.05932Z" fill="#5CB85C"/>
</svg>
