<svg width="16" height="17" viewBox="0 0 16 17" fill="none" xmlns="http://www.w3.org/2000/svg">
<path d="M4.66536 0.444763C2.0927 0.444763 0 2.5394 0 5.11273V11.7794C0 14.3521 2.09464 16.4448 4.66797 16.4448H11.3346C13.9073 16.4448 16 14.3501 16 11.7768V5.11013C16 2.53746 13.9054 0.444763 11.332 0.444763H4.66536ZM12.6667 3.11143C13.0347 3.11143 13.3333 3.4101 13.3333 3.7781C13.3333 4.1461 13.0347 4.44476 12.6667 4.44476C12.2987 4.44476 12 4.1461 12 3.7781C12 3.4101 12.2987 3.11143 12.6667 3.11143ZM8 4.44476C10.206 4.44476 12 6.23876 12 8.44476C12 10.6508 10.206 12.4448 8 12.4448C5.794 12.4448 4 10.6508 4 8.44476C4 6.23876 5.794 4.44476 8 4.44476ZM8 5.7781C7.29276 5.7781 6.61448 6.05905 6.11438 6.55914C5.61428 7.05924 5.33333 7.73752 5.33333 8.44476C5.33333 9.15201 5.61428 9.83028 6.11438 10.3304C6.61448 10.8305 7.29276 11.1114 8 11.1114C8.70724 11.1114 9.38552 10.8305 9.88562 10.3304C10.3857 9.83028 10.6667 9.15201 10.6667 8.44476C10.6667 7.73752 10.3857 7.05924 9.88562 6.55914C9.38552 6.05905 8.70724 5.7781 8 5.7781Z" fill="#F8F8F8"/>
</svg>
