<svg width="16" height="17" viewBox="0 0 16 17" fill="none" xmlns="http://www.w3.org/2000/svg">
<path d="M0 1.75781C0 1.14767 0.526 0.653198 1.175 0.653198H14.825C15.474 0.653198 16 1.14767 16 1.75781V14.9707C16 15.5808 15.474 16.0753 14.825 16.0753H1.175C0.526 16.0753 0 15.5808 0 14.9707V1.75781ZM4.943 13.5634V6.59938H2.542V13.5634H4.943ZM3.743 5.64803C4.58 5.64803 5.101 5.11404 5.101 4.44511C5.086 3.76171 4.581 3.24218 3.759 3.24218C2.937 3.24218 2.4 3.76268 2.4 4.44511C2.4 5.11404 2.921 5.64803 3.727 5.64803H3.743ZM8.651 13.5634V9.67416C8.651 9.46596 8.667 9.25776 8.731 9.10932C8.904 8.69389 9.299 8.26304 9.963 8.26304C10.832 8.26304 11.179 8.90113 11.179 9.83802V13.5634H13.58V9.56909C13.58 7.42928 12.396 6.43456 10.816 6.43456C9.542 6.43456 8.971 7.10927 8.651 7.58446V7.60856H8.635C8.64031 7.60052 8.64564 7.59248 8.651 7.58446V6.59938H6.251C6.281 7.25289 6.251 13.5634 6.251 13.5634H8.651Z" fill="#F8F8F8"/>
</svg>
