<svg width="46" height="59" viewBox="0 0 46 59" fill="none" xmlns="http://www.w3.org/2000/svg">
<path d="M13.625 25.4448C13.1277 25.4448 12.6508 25.6352 12.2992 25.9741C11.9475 26.313 11.75 26.7727 11.75 27.252C11.75 27.7314 11.9475 28.191 12.2992 28.53C12.6508 28.8689 13.1277 29.0593 13.625 29.0593H32.375C32.8723 29.0593 33.3492 28.8689 33.7008 28.53C34.0525 28.191 34.25 27.7314 34.25 27.252C34.25 26.7727 34.0525 26.313 33.7008 25.9741C33.3492 25.6352 32.8723 25.4448 32.375 25.4448H13.625ZM11.75 34.4811C11.75 34.0018 11.9475 33.5421 12.2992 33.2032C12.6508 32.8643 13.1277 32.6739 13.625 32.6739H32.375C32.8723 32.6739 33.3492 32.8643 33.7008 33.2032C34.0525 33.5421 34.25 34.0018 34.25 34.4811C34.25 34.9605 34.0525 35.4202 33.7008 35.7591C33.3492 36.098 32.8723 36.2884 32.375 36.2884H13.625C13.1277 36.2884 12.6508 36.098 12.2992 35.7591C11.9475 35.4202 11.75 34.9605 11.75 34.4811ZM11.75 41.7103C11.75 41.2309 11.9475 40.7712 12.2992 40.4323C12.6508 40.0934 13.1277 39.903 13.625 39.903H21.125C21.6223 39.903 22.0992 40.0934 22.4508 40.4323C22.8025 40.7712 23 41.2309 23 41.7103C23 42.1896 22.8025 42.6493 22.4508 42.9882C22.0992 43.3271 21.6223 43.5175 21.125 43.5175H13.625C13.1277 43.5175 12.6508 43.3271 12.2992 42.9882C11.9475 42.6493 11.75 42.1896 11.75 41.7103Z" fill="#5CB85C"/>
<path d="M28.625 0.444763H8C6.01088 0.444763 4.10322 1.2064 2.6967 2.56212C1.29018 3.91784 0.5 5.75659 0.5 7.67387V51.0485C0.5 52.9658 1.29018 54.8045 2.6967 56.1602C4.10322 57.516 6.01088 58.2776 8 58.2776H38C39.9891 58.2776 41.8968 57.516 43.3033 56.1602C44.7098 54.8045 45.5 52.9658 45.5 51.0485V16.7103L28.625 0.444763ZM28.625 4.05932V11.2884C28.625 12.7264 29.2176 14.1054 30.2725 15.1222C31.3274 16.139 32.7582 16.7103 34.25 16.7103H41.75V51.0485C41.75 52.0071 41.3549 52.9265 40.6516 53.6044C39.9484 54.2822 38.9946 54.6631 38 54.6631H8C7.00544 54.6631 6.05161 54.2822 5.34835 53.6044C4.64509 52.9265 4.25 52.0071 4.25 51.0485V7.67387C4.25 6.71523 4.64509 5.79585 5.34835 5.11799C6.05161 4.44013 7.00544 4.05932 8 4.05932H28.625Z" fill="#5CB85C"/>
</svg>
