<svg width="45" height="46" viewBox="0 0 45 46" fill="none" xmlns="http://www.w3.org/2000/svg">
<path d="M30.9368 7.47591C30.9366 5.82642 31.5164 4.22938 32.5749 2.9642C33.6334 1.69902 35.1031 0.846269 36.7269 0.555142C38.3507 0.264014 40.0252 0.55305 41.4574 1.37168C42.8896 2.19031 43.9883 3.4864 44.5613 5.0332C45.1343 6.57999 45.1451 8.27899 44.5918 9.83294C44.0385 11.3869 42.9563 12.6968 41.5346 13.5336C40.113 14.3703 38.4423 14.6806 36.8149 14.4101C35.1876 14.1397 33.7071 13.3057 32.6327 12.054L13.7386 20.8278C14.173 22.2041 14.173 23.6808 13.7386 25.0572L32.6327 33.831C33.7685 32.5102 35.3542 31.6581 37.0825 31.4397C38.8109 31.2213 40.5587 31.6523 41.9874 32.649C43.4161 33.6458 44.4238 35.1373 44.8153 36.8346C45.2068 38.532 44.9541 40.3142 44.1063 41.8358C43.2585 43.3575 41.8759 44.5103 40.2265 45.0708C38.5771 45.6313 36.7783 45.5596 35.1787 44.8696C33.5792 44.1796 32.2927 42.9204 31.5688 41.3361C30.8448 39.7518 30.7348 37.9551 31.2602 36.2944L12.3661 27.5206C11.4308 28.6105 10.1841 29.3878 8.79369 29.748C7.40329 30.1082 5.93592 30.034 4.58896 29.5354C3.242 29.0368 2.08007 28.1377 1.25949 26.959C0.438903 25.7803 -0.000976563 24.3786 -0.000976562 22.9425C-0.000976563 21.5064 0.438903 20.1047 1.25949 18.926C2.08007 17.7473 3.242 16.8482 4.58896 16.3496C5.93592 15.8509 7.40329 15.7767 8.79369 16.137C10.1841 16.4972 11.4308 17.2745 12.3661 18.3644L31.2602 9.59061C31.0451 8.90634 30.936 8.19318 30.9368 7.47591Z" fill="#5CB85C"/>
</svg>
