<svg width="22" height="22" viewBox="0 0 22 22" fill="none" xmlns="http://www.w3.org/2000/svg">
<path fill-rule="evenodd" clip-rule="evenodd" d="M2.59244 0.701516C2.83302 0.461277 3.12191 0.274914 3.43996 0.154777C3.75801 0.0346406 4.09796 -0.0165269 4.43727 0.00466588C4.77659 0.0258586 5.10753 0.118928 5.40816 0.277705C5.7088 0.436483 5.97225 0.657344 6.18108 0.925652L8.64913 4.09655C9.10149 4.6782 9.26098 5.43586 9.08224 6.15089L8.33014 9.16228C8.29125 9.31825 8.29335 9.48163 8.33623 9.63655C8.37912 9.79147 8.46133 9.93267 8.57488 10.0464L11.9531 13.425C12.067 13.5388 12.2085 13.6211 12.3636 13.664C12.5188 13.7069 12.6825 13.7089 12.8386 13.6697L15.8484 12.9176C16.2012 12.8294 16.5695 12.8225 16.9254 12.8975C17.2812 12.9726 17.6154 13.1275 17.9026 13.3507L21.0732 15.8176C22.2131 16.7045 22.3176 18.389 21.2974 19.4079L19.8756 20.8297C18.8582 21.8472 17.3375 22.2941 15.9199 21.795C12.2916 20.5183 8.99736 18.441 6.28145 15.7172C3.55806 13.0015 1.48094 9.70744 0.204141 6.07939C-0.293593 4.66307 0.153268 3.14088 1.17074 2.12333L2.59244 0.701516Z" fill="#ED3237"/>
</svg>
